<svg width="24" height="24" viewBox="0 0 24 24" fill="none" xmlns="http://www.w3.org/2000/svg">
<path d="M23.3776 4.1923H8.58614V3.60745C8.58614 2.74963 7.88827 2.05176 7.03045 2.05176H4.61639C3.75858 2.05176 3.0607 2.74963 3.0607 3.60745V4.1923H0.622266C0.278578 4.1923 0 4.47098 0 4.81462C0 5.15826 0.278578 5.43688 0.622266 5.43688H3.06061V6.02155C3.06061 6.87937 3.75848 7.57724 4.6163 7.57724H7.03041C7.88822 7.57724 8.58609 6.87937 8.58609 6.02155V5.43688H23.3776C23.7213 5.43688 23.9999 5.15821 23.9999 4.81462C24 4.47098 23.7213 4.1923 23.3776 4.1923ZM7.34161 6.02155C7.34161 6.19312 7.20202 6.33271 7.03045 6.33271H4.61634C4.44478 6.33271 4.30519 6.19312 4.30519 6.02155V3.60745C4.30519 3.43588 4.44478 3.29629 4.61634 3.29629H7.03045C7.20202 3.29629 7.34161 3.43588 7.34161 3.60745V6.02155Z" fill="#747475"/>
<path d="M23.3777 11.1232H20.9393V10.5381C20.9393 9.6803 20.2415 8.98242 19.3837 8.98242H16.9695C16.1117 8.98242 15.4139 9.6803 15.4139 10.5381V11.1232H0.622266C0.278578 11.1232 0 11.4018 0 11.7454C0 12.0891 0.278578 12.3677 0.622266 12.3677H15.4138V12.9522C15.4138 13.81 16.1117 14.5079 16.9695 14.5079H19.3836C20.2414 14.5079 20.9393 13.81 20.9393 12.9522V12.3677H23.3777C23.7214 12.3677 24 12.089 24 11.7454C24 11.4018 23.7214 11.1232 23.3777 11.1232ZM19.6948 12.9522C19.6948 13.1238 19.5552 13.2634 19.3836 13.2634H16.9695C16.7979 13.2634 16.6583 13.1238 16.6583 12.9522V10.5381C16.6583 10.3665 16.7979 10.227 16.9695 10.227H19.3836C19.5552 10.227 19.6948 10.3665 19.6948 10.5381V12.9522Z" fill="#747475"/>
<path d="M23.3777 18.5632H12.9578V17.9785C12.9578 17.1207 12.2599 16.4229 11.4021 16.4229H8.98795C8.13014 16.4229 7.43227 17.1207 7.43227 17.9785V18.5632H0.622266C0.278578 18.5632 0 18.8419 0 19.1855C0 19.5291 0.278578 19.8077 0.622266 19.8077H7.43222V20.3926C7.43222 21.2504 8.13009 21.9483 8.98791 21.9483H11.402C12.2598 21.9483 12.9577 21.2504 12.9577 20.3926V19.8077H23.3777C23.7214 19.8077 24 19.5291 24 19.1855C24 18.8418 23.7214 18.5632 23.3777 18.5632ZM11.7132 20.3926C11.7132 20.5642 11.5736 20.7038 11.402 20.7038H8.98791C8.81634 20.7038 8.67675 20.5642 8.67675 20.3926V17.9785C8.67675 17.807 8.81634 17.6674 8.98791 17.6674H11.402C11.5736 17.6674 11.7132 17.807 11.7132 17.9785V20.3926Z" fill="#747475"/>
</svg>
